<mxfile host="app.diagrams.net" modified="2023-12-05T02:05:38.673Z" agent="Mozilla/5.0 (Windows NT 10.0; Win64; x64) AppleWebKit/537.36 (KHTML, like Gecko) Chrome/119.0.0.0 Safari/537.36" etag="_SN8JUaYPJ0muZ-uDG3I" version="22.1.5" type="device">
  <diagram name="Trang-1" id="wYmPZeeDokmhZMvDRgE6">
    <mxGraphModel dx="2318" dy="1066" grid="1" gridSize="10" guides="1" tooltips="1" connect="1" arrows="1" fold="1" page="0" pageScale="1" pageWidth="827" pageHeight="1169" math="0" shadow="0">
      <root>
        <mxCell id="0" />
        <mxCell id="1" parent="0" />
        <mxCell id="La0l_Qo-i2Yd959MZXIb-81" value="Người dùng" style="shape=table;startSize=30;container=1;collapsible=1;childLayout=tableLayout;fixedRows=1;rowLines=0;fontStyle=1;align=center;resizeLast=1;html=1;" vertex="1" parent="1">
          <mxGeometry x="-440" y="-80" width="380" height="730" as="geometry" />
        </mxCell>
        <mxCell id="La0l_Qo-i2Yd959MZXIb-85" value="" style="shape=tableRow;horizontal=0;startSize=0;swimlaneHead=0;swimlaneBody=0;fillColor=none;collapsible=0;dropTarget=0;points=[[0,0.5],[1,0.5]];portConstraint=eastwest;top=0;left=0;right=0;bottom=0;" vertex="1" parent="La0l_Qo-i2Yd959MZXIb-81">
          <mxGeometry y="30" width="380" height="30" as="geometry" />
        </mxCell>
        <mxCell id="La0l_Qo-i2Yd959MZXIb-86" value="" style="shape=partialRectangle;connectable=0;fillColor=none;top=0;left=0;bottom=0;right=0;editable=1;overflow=hidden;whiteSpace=wrap;html=1;" vertex="1" parent="La0l_Qo-i2Yd959MZXIb-85">
          <mxGeometry width="20" height="30" as="geometry">
            <mxRectangle width="20" height="30" as="alternateBounds" />
          </mxGeometry>
        </mxCell>
        <mxCell id="La0l_Qo-i2Yd959MZXIb-87" value="" style="shape=partialRectangle;connectable=0;fillColor=none;top=0;left=0;bottom=0;right=0;align=left;spacingLeft=6;overflow=hidden;whiteSpace=wrap;html=1;" vertex="1" parent="La0l_Qo-i2Yd959MZXIb-85">
          <mxGeometry x="20" width="360" height="30" as="geometry">
            <mxRectangle width="360" height="30" as="alternateBounds" />
          </mxGeometry>
        </mxCell>
        <mxCell id="La0l_Qo-i2Yd959MZXIb-88" value="" style="shape=tableRow;horizontal=0;startSize=0;swimlaneHead=0;swimlaneBody=0;fillColor=none;collapsible=0;dropTarget=0;points=[[0,0.5],[1,0.5]];portConstraint=eastwest;top=0;left=0;right=0;bottom=0;" vertex="1" parent="La0l_Qo-i2Yd959MZXIb-81">
          <mxGeometry y="60" width="380" height="60" as="geometry" />
        </mxCell>
        <mxCell id="La0l_Qo-i2Yd959MZXIb-89" value="" style="shape=partialRectangle;connectable=0;fillColor=none;top=0;left=0;bottom=0;right=0;editable=1;overflow=hidden;whiteSpace=wrap;html=1;" vertex="1" parent="La0l_Qo-i2Yd959MZXIb-88">
          <mxGeometry width="20" height="60" as="geometry">
            <mxRectangle width="20" height="60" as="alternateBounds" />
          </mxGeometry>
        </mxCell>
        <mxCell id="La0l_Qo-i2Yd959MZXIb-90" value="" style="shape=partialRectangle;connectable=0;fillColor=none;top=0;left=0;bottom=0;right=0;align=left;spacingLeft=6;overflow=hidden;whiteSpace=wrap;html=1;" vertex="1" parent="La0l_Qo-i2Yd959MZXIb-88">
          <mxGeometry x="20" width="360" height="60" as="geometry">
            <mxRectangle width="360" height="60" as="alternateBounds" />
          </mxGeometry>
        </mxCell>
        <mxCell id="La0l_Qo-i2Yd959MZXIb-91" value="" style="shape=tableRow;horizontal=0;startSize=0;swimlaneHead=0;swimlaneBody=0;fillColor=none;collapsible=0;dropTarget=0;points=[[0,0.5],[1,0.5]];portConstraint=eastwest;top=0;left=0;right=0;bottom=0;" vertex="1" parent="La0l_Qo-i2Yd959MZXIb-81">
          <mxGeometry y="120" width="380" height="610" as="geometry" />
        </mxCell>
        <mxCell id="La0l_Qo-i2Yd959MZXIb-92" value="" style="shape=partialRectangle;connectable=0;fillColor=none;top=0;left=0;bottom=0;right=0;editable=1;overflow=hidden;whiteSpace=wrap;html=1;" vertex="1" parent="La0l_Qo-i2Yd959MZXIb-91">
          <mxGeometry width="20" height="610" as="geometry">
            <mxRectangle width="20" height="610" as="alternateBounds" />
          </mxGeometry>
        </mxCell>
        <mxCell id="La0l_Qo-i2Yd959MZXIb-93" value="" style="shape=partialRectangle;connectable=0;fillColor=none;top=0;left=0;bottom=0;right=0;align=left;spacingLeft=6;overflow=hidden;whiteSpace=wrap;html=1;" vertex="1" parent="La0l_Qo-i2Yd959MZXIb-91">
          <mxGeometry x="20" width="360" height="610" as="geometry">
            <mxRectangle width="360" height="610" as="alternateBounds" />
          </mxGeometry>
        </mxCell>
        <mxCell id="La0l_Qo-i2Yd959MZXIb-94" value="Hệ thống" style="shape=table;startSize=30;container=1;collapsible=1;childLayout=tableLayout;fixedRows=1;rowLines=0;fontStyle=1;align=center;resizeLast=1;html=1;" vertex="1" parent="1">
          <mxGeometry x="-60" y="-80" width="570" height="730" as="geometry" />
        </mxCell>
        <mxCell id="La0l_Qo-i2Yd959MZXIb-104" value="" style="shape=tableRow;horizontal=0;startSize=0;swimlaneHead=0;swimlaneBody=0;fillColor=none;collapsible=0;dropTarget=0;points=[[0,0.5],[1,0.5]];portConstraint=eastwest;top=0;left=0;right=0;bottom=0;" vertex="1" parent="La0l_Qo-i2Yd959MZXIb-94">
          <mxGeometry y="30" width="570" height="700" as="geometry" />
        </mxCell>
        <mxCell id="La0l_Qo-i2Yd959MZXIb-105" value="" style="shape=partialRectangle;connectable=0;fillColor=none;top=0;left=0;bottom=0;right=0;editable=1;overflow=hidden;whiteSpace=wrap;html=1;" vertex="1" parent="La0l_Qo-i2Yd959MZXIb-104">
          <mxGeometry width="550" height="700" as="geometry">
            <mxRectangle width="550" height="700" as="alternateBounds" />
          </mxGeometry>
        </mxCell>
        <mxCell id="La0l_Qo-i2Yd959MZXIb-106" value="" style="shape=partialRectangle;connectable=0;fillColor=none;top=0;left=0;bottom=0;right=0;align=left;spacingLeft=6;overflow=hidden;whiteSpace=wrap;html=1;" vertex="1" parent="La0l_Qo-i2Yd959MZXIb-104">
          <mxGeometry x="550" width="20" height="700" as="geometry">
            <mxRectangle width="20" height="700" as="alternateBounds" />
          </mxGeometry>
        </mxCell>
        <mxCell id="La0l_Qo-i2Yd959MZXIb-111" style="edgeStyle=orthogonalEdgeStyle;rounded=0;orthogonalLoop=1;jettySize=auto;html=1;exitX=0.5;exitY=1;exitDx=0;exitDy=0;fontFamily=Helvetica;fontSize=12;fontColor=default;startSize=30;entryX=0;entryY=0.5;entryDx=0;entryDy=0;" edge="1" parent="1" source="La0l_Qo-i2Yd959MZXIb-107" target="La0l_Qo-i2Yd959MZXIb-109">
          <mxGeometry relative="1" as="geometry">
            <Array as="points">
              <mxPoint x="-250" y="100" />
            </Array>
          </mxGeometry>
        </mxCell>
        <mxCell id="La0l_Qo-i2Yd959MZXIb-107" value="Truy cập trang đăng nhập" style="rounded=1;arcSize=10;whiteSpace=wrap;html=1;align=center;strokeColor=default;verticalAlign=middle;fontFamily=Helvetica;fontSize=12;fontColor=default;startSize=30;fillColor=default;" vertex="1" parent="1">
          <mxGeometry x="-370" y="30" width="240" height="40" as="geometry" />
        </mxCell>
        <mxCell id="La0l_Qo-i2Yd959MZXIb-119" style="edgeStyle=orthogonalEdgeStyle;rounded=0;orthogonalLoop=1;jettySize=auto;html=1;exitX=0.5;exitY=1;exitDx=0;exitDy=0;entryX=1;entryY=0.5;entryDx=0;entryDy=0;fontFamily=Helvetica;fontSize=12;fontColor=default;startSize=30;" edge="1" parent="1" source="La0l_Qo-i2Yd959MZXIb-109" target="La0l_Qo-i2Yd959MZXIb-118">
          <mxGeometry relative="1" as="geometry" />
        </mxCell>
        <mxCell id="La0l_Qo-i2Yd959MZXIb-109" value="Truy cập trang đăng nhập" style="rounded=1;arcSize=10;whiteSpace=wrap;html=1;align=center;strokeColor=default;verticalAlign=middle;fontFamily=Helvetica;fontSize=12;fontColor=default;startSize=30;fillColor=default;" vertex="1" parent="1">
          <mxGeometry x="80" y="80" width="240" height="40" as="geometry" />
        </mxCell>
        <mxCell id="La0l_Qo-i2Yd959MZXIb-112" value="" style="ellipse;html=1;shape=startState;fillColor=#000000;strokeColor=#ff0000;align=center;verticalAlign=middle;fontFamily=Helvetica;fontSize=12;fontColor=default;startSize=30;" vertex="1" parent="1">
          <mxGeometry x="-265" y="-40" width="30" height="30" as="geometry" />
        </mxCell>
        <mxCell id="La0l_Qo-i2Yd959MZXIb-113" value="" style="edgeStyle=orthogonalEdgeStyle;html=1;verticalAlign=bottom;endArrow=open;endSize=8;strokeColor=#ff0000;rounded=0;fontFamily=Helvetica;fontSize=12;fontColor=default;" edge="1" source="La0l_Qo-i2Yd959MZXIb-112" parent="1">
          <mxGeometry relative="1" as="geometry">
            <mxPoint x="-250" y="20" as="targetPoint" />
          </mxGeometry>
        </mxCell>
        <mxCell id="La0l_Qo-i2Yd959MZXIb-125" style="edgeStyle=orthogonalEdgeStyle;rounded=0;orthogonalLoop=1;jettySize=auto;html=1;exitX=0.5;exitY=1;exitDx=0;exitDy=0;entryX=0;entryY=0.5;entryDx=0;entryDy=0;fontFamily=Helvetica;fontSize=12;fontColor=default;startSize=30;" edge="1" parent="1" source="La0l_Qo-i2Yd959MZXIb-118" target="La0l_Qo-i2Yd959MZXIb-124">
          <mxGeometry relative="1" as="geometry" />
        </mxCell>
        <mxCell id="La0l_Qo-i2Yd959MZXIb-118" value="Nhập thông tin đăng nhập" style="rounded=1;arcSize=10;whiteSpace=wrap;html=1;align=center;strokeColor=default;verticalAlign=middle;fontFamily=Helvetica;fontSize=12;fontColor=default;startSize=30;fillColor=default;" vertex="1" parent="1">
          <mxGeometry x="-360" y="160" width="240" height="40" as="geometry" />
        </mxCell>
        <mxCell id="La0l_Qo-i2Yd959MZXIb-124" value="Kiểm tra thông tin đăng nhập" style="rounded=1;arcSize=10;whiteSpace=wrap;html=1;align=center;strokeColor=default;verticalAlign=middle;fontFamily=Helvetica;fontSize=12;fontColor=default;startSize=30;fillColor=default;" vertex="1" parent="1">
          <mxGeometry x="80" y="240" width="240" height="40" as="geometry" />
        </mxCell>
        <mxCell id="La0l_Qo-i2Yd959MZXIb-128" value="" style="endArrow=classic;html=1;rounded=0;fontFamily=Helvetica;fontSize=12;fontColor=default;startSize=30;exitX=0.5;exitY=1;exitDx=0;exitDy=0;entryX=0.504;entryY=-0.103;entryDx=0;entryDy=0;entryPerimeter=0;" edge="1" parent="1" source="La0l_Qo-i2Yd959MZXIb-124" target="La0l_Qo-i2Yd959MZXIb-129">
          <mxGeometry width="50" height="50" relative="1" as="geometry">
            <mxPoint x="280" y="460" as="sourcePoint" />
            <mxPoint x="330" y="410" as="targetPoint" />
          </mxGeometry>
        </mxCell>
        <mxCell id="La0l_Qo-i2Yd959MZXIb-138" style="edgeStyle=orthogonalEdgeStyle;rounded=0;orthogonalLoop=1;jettySize=auto;html=1;exitX=1;exitY=0.5;exitDx=0;exitDy=0;entryX=1;entryY=0.5;entryDx=0;entryDy=0;fontFamily=Helvetica;fontSize=12;fontColor=default;startSize=30;" edge="1" parent="1" source="La0l_Qo-i2Yd959MZXIb-129" target="La0l_Qo-i2Yd959MZXIb-109">
          <mxGeometry relative="1" as="geometry">
            <Array as="points">
              <mxPoint x="380" y="370" />
              <mxPoint x="380" y="100" />
            </Array>
          </mxGeometry>
        </mxCell>
        <mxCell id="La0l_Qo-i2Yd959MZXIb-129" value="" style="rhombus;whiteSpace=wrap;html=1;strokeColor=default;align=center;verticalAlign=middle;fontFamily=Helvetica;fontSize=12;fontColor=default;startSize=30;fillColor=default;" vertex="1" parent="1">
          <mxGeometry x="160" y="340" width="80" height="60" as="geometry" />
        </mxCell>
        <mxCell id="La0l_Qo-i2Yd959MZXIb-140" style="edgeStyle=orthogonalEdgeStyle;rounded=0;orthogonalLoop=1;jettySize=auto;html=1;exitX=0.5;exitY=1;exitDx=0;exitDy=0;entryX=0.5;entryY=0;entryDx=0;entryDy=0;fontFamily=Helvetica;fontSize=12;fontColor=default;startSize=30;" edge="1" parent="1" source="La0l_Qo-i2Yd959MZXIb-134" target="La0l_Qo-i2Yd959MZXIb-139">
          <mxGeometry relative="1" as="geometry" />
        </mxCell>
        <mxCell id="La0l_Qo-i2Yd959MZXIb-134" value="Hiển thị trang chủ" style="rounded=1;arcSize=10;whiteSpace=wrap;html=1;align=center;strokeColor=default;verticalAlign=middle;fontFamily=Helvetica;fontSize=12;fontColor=default;startSize=30;fillColor=default;" vertex="1" parent="1">
          <mxGeometry x="80" y="480" width="240" height="40" as="geometry" />
        </mxCell>
        <mxCell id="La0l_Qo-i2Yd959MZXIb-135" value="" style="endArrow=classic;html=1;rounded=0;fontFamily=Helvetica;fontSize=12;fontColor=default;startSize=30;exitX=0.5;exitY=1;exitDx=0;exitDy=0;entryX=0.5;entryY=0;entryDx=0;entryDy=0;" edge="1" parent="1" source="La0l_Qo-i2Yd959MZXIb-129" target="La0l_Qo-i2Yd959MZXIb-134">
          <mxGeometry width="50" height="50" relative="1" as="geometry">
            <mxPoint x="199.41" y="500" as="sourcePoint" />
            <mxPoint x="199" y="554" as="targetPoint" />
          </mxGeometry>
        </mxCell>
        <mxCell id="La0l_Qo-i2Yd959MZXIb-136" value="Thành công" style="edgeLabel;html=1;align=center;verticalAlign=middle;resizable=0;points=[];fontSize=12;fontFamily=Helvetica;fontColor=default;" vertex="1" connectable="0" parent="La0l_Qo-i2Yd959MZXIb-135">
          <mxGeometry x="-0.1478" y="2" relative="1" as="geometry">
            <mxPoint as="offset" />
          </mxGeometry>
        </mxCell>
        <mxCell id="La0l_Qo-i2Yd959MZXIb-139" value="" style="ellipse;html=1;shape=endState;fillColor=#000000;strokeColor=#ff0000;align=center;verticalAlign=middle;fontFamily=Helvetica;fontSize=12;fontColor=default;startSize=30;" vertex="1" parent="1">
          <mxGeometry x="185" y="570" width="30" height="30" as="geometry" />
        </mxCell>
      </root>
    </mxGraphModel>
  </diagram>
</mxfile>
